<?xml version="1.0" encoding="iso-8859-1"?>
<!-- Generator: Adobe Illustrator 16.0.0, SVG Export Plug-In . SVG Version: 6.00 Build 0)  -->
<!DOCTYPE svg PUBLIC "-//W3C//DTD SVG 1.1//EN" "http://www.w3.org/Graphics/SVG/1.1/DTD/svg11.dtd">
<svg version="1.1" id="Capa_1" xmlns="http://www.w3.org/2000/svg" xmlns:xlink="http://www.w3.org/1999/xlink" x="0px" y="0px"
	 width="347.028px" height="347.028px" viewBox="0 0 347.028 347.028" style="enable-background:new 0 0 347.028 347.028;"
	 xml:space="preserve">
<g>
	<path d="M286.007,39.52c1.59-0.622,2.719-1.682,3.008-1.966c0.299-0.301,0.981-0.47,1.867-0.47c3.565,0,9.881,2.723,15.96,8.801
		c3.867,3.858,6.828,8.341,8.126,12.304c0.912,2.801,0.745,4.591,0.272,5.386c-0.031,0.027-0.062,0.053-0.095,0.076
		c-0.173,0.155-0.341,0.322-0.499,0.499c-0.649,0.677-4.099,4.166-9.778,9.885l-23.796-26.617l-1.396-1.564L286.007,39.52z"/>
	<path d="M253.748,121.812c-93.442,93.77-218.202,218.822-218.899,219.515c-0.053,0.052-0.108,0.104-0.15,0.146l-1.861,1.859
		c-0.375,0.138-0.74,0.325-1.084,0.546c-3.133,2.068-6.785,3.149-10.564,3.149l0,0c-5.139,0-9.966-1.994-13.604-5.627
		c-6.401-6.399-7.457-16.535-2.501-24.1c0.234-0.354,0.409-0.73,0.538-1.124L225.369,96.442l9.796,8.762L253.748,121.812z"/>
	<polygon points="316.609,163.585 252.904,106.636 228.745,85.035 228.729,85.03 181.474,42.788 224.268,0 268.263,49.229 
		268.268,49.234 278.432,60.602 345.057,135.139 	"/>
</g>
<g>
</g>
<g>
</g>
<g>
</g>
<g>
</g>
<g>
</g>
<g>
</g>
<g>
</g>
<g>
</g>
<g>
</g>
<g>
</g>
<g>
</g>
<g>
</g>
<g>
</g>
<g>
</g>
<g>
</g>
</svg>
